<svg width="118" height="52" fill="none" xmlns="http://www.w3.org/2000/svg"><path d="M60.446 25.24h-5.268L52.43 37.884h5.674c4.083 0 5.295-2.247 5.31-4.02.012-1.546-.866-2.178-1.694-2.45l.027-.14c1.161-.255 2.57-1.203 2.586-3.152.015-1.88-1.438-2.88-3.886-2.88Zm-4.277 10.062.557-2.51h2.24c.856 0 1.364.35 1.358 1.08-.006.754-.582 1.43-1.793 1.43h-2.362Zm1.114-5.092.521-2.388h2.067c.857 0 1.33.325 1.324 1.018-.006.72-.547 1.37-1.784 1.37h-2.128Zm8.692-4.97-2.748 12.643h9.058l.601-2.739h-5.77l2.146-9.903h-3.287Zm12.701 0-6.198 12.38-.054.264h3.122l1.215-2.634h3.694l.073 2.633h2.993l.054-.263-.817-12.38h-4.082Zm-.682 7.358 2.13-4.61h.138l.119 4.61h-2.387Z" fill="#fff"/><path d="M89.793 25.24h-3.555L83.49 37.884h4.377c5.51 0 7.316-4.108 7.344-7.62.027-3.258-2.113-5.022-5.417-5.022Zm-2.485 9.974 1.573-7.304h.787c1.522 0 2.389.843 2.376 2.45-.019 2.343-1.198 4.854-3.724 4.854h-1.012Zm9.728-9.974-2.75 12.643h9.429l.557-2.58h-6.21l.547-2.494h5.225l.557-2.581h-5.216l.521-2.406h6.089l.558-2.581h-9.307ZM65.515 10.607l-.584 2.705h3.58l-2.164 9.938h3.252l2.165-9.938h3.581l.584-2.705H65.515Zm15.927 0H76.33L73.58 23.25h3.184l1.078-4.97h.173l2.563 4.97h3.227l.053-.263-2.582-4.689c3.15-.263 4.315-2.08 4.333-4.284.018-2.177-1.59-3.407-4.167-3.407Zm-3.097 5.356.61-2.774h2.033c.986 0 1.545.395 1.539 1.167-.007.808-.584 1.607-2.02 1.607h-2.162Z" fill="#fff"/><path d="m89.445 10.607-6.198 12.38-.054.263h3.123l1.215-2.634h3.693l.074 2.634h2.992l.054-.263-.816-12.38h-4.083Zm-.682 7.358 2.13-4.61h.139l.118 4.61h-2.387Z" fill="#fff"/><path d="M100.562 10.607h-3.555L94.26 23.25h4.376c5.51 0 7.316-4.109 7.345-7.62.026-3.258-2.113-5.023-5.418-5.023Zm-2.485 9.974 1.573-7.305h.787c1.522 0 2.389.843 2.376 2.45-.019 2.344-1.198 4.855-3.724 4.855h-1.012Zm9.728-9.974-2.749 12.643h9.428l.557-2.581h-6.21l.547-2.494h5.225l.557-2.58h-5.216l.521-2.406h6.09l.557-2.582h-9.307Z" fill="#fff"/><path d="M30.588 37.918 10 2.376l10.227 8.207 13.071 22.64-2.71 4.695ZM49.914 16.4 29.428 52l1.994-12.96L44.493 16.4h5.42Zm-28.179-5.753 41.074-.059-12.22 4.753H24.446l-2.71-4.694Z" fill="#5E47FF"/><path d="M30.588 37.918 10 2.376l10.227 8.207 13.071 22.64-2.71 4.695ZM49.914 16.4 29.428 52l1.994-12.96L44.493 16.4h5.42Z" fill="#5E47FF"/><g filter="url(#a)"><path d="m21.735 10.647 41.074-.059-12.22 4.753H24.446l-2.71-4.694Z" fill="#5E47FF"/></g><path d="m34.037 30.541 7.743-13.412H26.293l7.744 13.412Z" fill="#57E1FF"/><g filter="url(#b)"><path d="M30.588 37.918 10 2.376l10.227 8.207 13.071 22.64-2.71 4.695Z" fill="#5E47FF"/></g><g filter="url(#c)"><path d="M49.914 16.4 29.428 52l1.994-12.96L44.493 16.4h5.42Z" fill="#5E47FF"/></g><path d="m21.735 10.647 41.074-.059-12.22 4.753H24.446l-2.71-4.694Z" fill="#5E47FF"/><defs><filter id="a" x="1.735" y="-9.412" width="81.073" height="44.753" filterUnits="userSpaceOnUse" color-interpolation-filters="sRGB"><feFlood flood-opacity="0" result="BackgroundImageFix"/><feBlend in="SourceGraphic" in2="BackgroundImageFix" result="shape"/><feGaussianBlur stdDeviation="10" result="effect1_foregroundBlur_185_233"/></filter><filter id="b" x="-10" y="-17.623" width="63.298" height="75.541" filterUnits="userSpaceOnUse" color-interpolation-filters="sRGB"><feFlood flood-opacity="0" result="BackgroundImageFix"/><feBlend in="SourceGraphic" in2="BackgroundImageFix" result="shape"/><feGaussianBlur stdDeviation="10" result="effect1_foregroundBlur_185_233"/></filter><filter id="c" x="9.428" y="-3.6" width="60.486" height="75.6" filterUnits="userSpaceOnUse" color-interpolation-filters="sRGB"><feFlood flood-opacity="0" result="BackgroundImageFix"/><feBlend in="SourceGraphic" in2="BackgroundImageFix" result="shape"/><feGaussianBlur stdDeviation="10" result="effect1_foregroundBlur_185_233"/></filter></defs></svg>