<svg width="486" height="189" viewBox="0 0 486 189" fill="none" xmlns="http://www.w3.org/2000/svg">
<path d="M127.025 185.708V147.853H150.721V113.565H127.025V2.7431H73.0186L0 117.131V147.853H87.8979V185.708H127.025ZM87.8979 113.565H38.3003L87.8979 37.3063V113.565Z" fill="#DF0E14"/>
<path d="M242.94 189C295.293 189 318.989 141.544 318.989 94.3629C318.989 47.1814 295.293 0 242.94 0C190.311 0 166.89 47.1814 166.89 94.3629C166.89 141.544 190.311 189 242.94 189ZM242.94 154.437C216.488 154.437 206.568 128.103 206.568 94.3629C206.568 60.6226 216.488 34.5631 242.94 34.5631C269.116 34.5631 279.036 60.6226 279.036 94.3629C279.036 128.103 269.116 154.437 242.94 154.437Z" fill="#DF0E14"/>
<path d="M462.303 185.708V147.853H486V113.565H462.303V2.7431H408.297L335.279 117.131V147.853H423.176V185.708H462.303ZM423.176 113.565H373.579L423.176 37.3063V113.565Z" fill="#DF0E14"/>
<path d="M289 92C289 131.212 268.405 163 243 163C217.595 163 197 131.212 197 92C197 52.7878 217.595 21 243 21C268.405 21 289 52.7878 289 92Z" fill="#DF0E14"/>
<path d="M242.581 123.976L223.839 144.093H261.322L242.581 123.976Z" fill="white"/>
<path d="M280.455 79.8382L255.959 55.378L247.245 64.0784L271.741 88.5362C278.547 95.3343 278.547 106.391 271.744 113.187C264.935 119.987 254.938 119.252 247.055 113.187C244.824 111.475 242.479 108.839 242.479 108.839C242.479 108.839 240.759 110.919 238.122 113.187C234.588 116.226 230.442 118.295 225.78 118.295C221.116 118.295 216.731 116.479 213.433 113.187C206.627 106.391 206.627 95.3343 213.433 88.5362L224.802 77.1875L229.413 81.7914L238.127 73.0935L233.516 68.487L251.323 50.7081L242.616 42L224.802 59.7865L220.133 55.1218L211.419 63.8222L216.091 68.487L204.722 79.8357C199.097 85.4517 196 92.9169 196 100.861C196 108.804 199.097 116.271 204.722 121.887C210.346 127.503 217.823 130.595 225.78 130.595C231.875 130.595 237.68 128.766 242.599 125.39C247.644 128.835 253.515 130.583 259.399 130.583C267.023 130.583 274.65 127.681 280.455 121.887C292.065 110.292 292.065 91.4279 280.455 79.8382Z" fill="white"/>
</svg>
