<svg xmlns="http://www.w3.org/2000/svg" xmlns:xlink="http://www.w3.org/1999/xlink" width="17" height="31" viewBox="0 0 17 31"><defs><path id="r46ea" d="M901.66 5930h-3.4c-3.83 0-6.3 2.6-6.3 6.64v3.07h-3.42c-.3 0-.54.24-.54.55v4.44c0 .3.24.55.54.55h3.42v11.2c0 .3.24.55.53.55h4.47c.3 0 .54-.25.54-.55v-11.2h4c.3 0 .53-.25.53-.55v-4.44a.56.56 0 0 0-.15-.39.53.53 0 0 0-.38-.16h-4v-2.6c0-1.25.29-1.88 1.87-1.88h2.29c.3 0 .54-.25.54-.55v-4.12c0-.3-.24-.55-.54-.55z"/></defs><g><g transform="translate(-887 -5928)"><use fill="#fff" xlink:href="#r46ea"/></g></g></svg>