<svg xmlns="http://www.w3.org/2000/svg" xmlns:xlink="http://www.w3.org/1999/xlink" width="27" height="27" viewBox="0 0 27 27"><defs><path id="xpjba" d="M1022.32 5937.26c0 .82-.65 1.49-1.45 1.49h-1.38c-.8 0-1.46-.67-1.46-1.49v-1.41c0-.82.65-1.49 1.46-1.49h1.38c.8 0 1.45.67 1.45 1.49v1.41zm-1.55 15.19h-14.53c-.8 0-1.6-.67-1.6-1.49v-7.43c0-.82.8-1.5 1.6-1.5h.82l.16.02c.3.06.5.29.53.58v.15c-.01.03.07.07.06.1-.02.22.04.43.04.65a5.81 5.81 0 0 0 5.6 5.94h.07a5.88 5.88 0 0 0 5.76-6.59v-.1c-.02-.05-.02-.1-.02-.15.03-.3.22-.52.53-.58l.16-.01h.82c.8 0 1.55.67 1.55 1.5v7.42c0 .82-.75 1.49-1.55 1.49zm-10.17-8.92s.23-2.97 2.9-2.97c2.68 0 2.91 2.97 2.91 2.97s.09 2.97-2.9 2.97c-3 0-2.91-2.97-2.91-2.97zm-5.74-11.9c-1.6 0-2.9 1.33-2.9 2.97v17.62c0 1.64 1.3 2.97 2.9 2.97h17.23c1.6 0 2.91-1.33 2.91-2.97v-17.62c0-1.64-1.3-2.97-2.9-2.97z"/></defs><g><g transform="translate(-1000 -5930)"><use fill="#fff" xlink:href="#xpjba"/></g></g></svg>