<svg xmlns="http://www.w3.org/2000/svg" xmlns:xlink="http://www.w3.org/1999/xlink" width="29" height="25" viewBox="0 0 29 25"><defs><path id="eguha" d="M970.26 5932.4c-1.08.64-2.26 1.1-3.52 1.35a5.55 5.55 0 0 0-9.44 5.06 15.71 15.71 0 0 1-11.42-5.8 5.56 5.56 0 0 0 1.71 7.42 5.52 5.52 0 0 1-2.5-.7v.07c0 2.7 1.9 4.94 4.44 5.45a5.57 5.57 0 0 1-2.5.1 5.55 5.55 0 0 0 5.17 3.85 11.1 11.1 0 0 1-8.2 2.3 15.65 15.65 0 0 0 8.5 2.5c10.18 0 15.75-8.46 15.75-15.8l-.02-.73a11.16 11.16 0 0 0 2.77-2.87c-1 .44-2.06.74-3.18.88a5.58 5.58 0 0 0 2.44-3.07z"/></defs><g><g transform="translate(-943 -5930)"><use fill="#fff" xlink:href="#eguha"/></g></g></svg>