<?xml version="1.0" encoding="utf-8"?>
<!-- Generator: Adobe Illustrator 16.0.0, SVG Export Plug-In . SVG Version: 6.00 Build 0)  -->
<!DOCTYPE svg PUBLIC "-//W3C//DTD SVG 1.1//EN" "http://www.w3.org/Graphics/SVG/1.1/DTD/svg11.dtd">
<svg version="1.1" id="Layer_1" xmlns="http://www.w3.org/2000/svg" xmlns:xlink="http://www.w3.org/1999/xlink" x="0px" y="0px"
	 width="129.212px" height="40.424px" viewBox="0 0 129.212 40.424" enable-background="new 0 0 129.212 40.424"
	 xml:space="preserve">
<g>
	<path fill="#FFFFFF" d="M71.46,5.222c3.854-0.87,8.24-0.445,11.447,2.03c4.325,3.349,5.234,9.788,3.113,14.628
		c-1.112,2.532-3.262,4.566-5.853,5.533c-2.903,1.105-6.159,1.166-9.149,0.378c-2.823-0.741-5.327-2.679-6.661-5.285
		c-1.885-3.649-1.889-8.229-0.01-11.876C65.756,7.877,68.456,5.889,71.46,5.222 M72.749,10.649
		c-3.982,1.383-4.688,7.013-2.369,10.123c2.411,3.123,8.254,2.736,9.92-0.977c1.097-2.475,0.944-5.682-0.877-7.783
		C77.776,10.201,74.977,9.927,72.749,10.649"/>
	<path fill="#FFFFFF" d="M111.731,8.342c1.138-2.014,3.423-3.058,5.633-3.374c3.288-0.451,6.733,0.077,9.686,1.614
		c-0.007,1.831-0.007,3.658,0,5.489c-2.301-1.663-5.24-2.321-8.044-2.047c-0.726,0.094-1.676,0.284-1.911,1.096
		c-0.174,1.118,1.031,1.608,1.858,1.972c2.814,1.119,6.027,1.725,8.196,4.006c1.872,1.911,2.057,4.983,1.089,7.374
		c-0.901,2.12-3.162,3.259-5.334,3.597c-3.979,0.635-8.197,0.091-11.778-1.801c0.007-1.866-0.007-3.735,0.01-5.602
		c3.052,1.95,6.806,2.968,10.409,2.301c0.95-0.132,1.509-1.309,0.88-2.084c-0.735-0.896-1.931-1.18-2.958-1.608
		c-2.463-0.867-5.145-1.644-6.965-3.632C110.752,13.698,110.493,10.617,111.731,8.342"/>
	<polygon fill="#FFFFFF" points="43.345,5.296 62.043,5.286 62.066,10.607 55.701,10.607 55.704,27.836 49.729,27.846 
		49.723,10.607 43.345,10.607 	"/>
	<path fill="#FFFFFF" d="M90.178,5.286c3.265,0.01,6.529-0.016,9.794,0.01c2.475,0.09,5.144,0.564,7.006,2.33
		c1.851,1.798,2.189,4.605,1.818,7.045c-0.245,2.005-1.479,3.877-3.303,4.786c-2.869,1.515-6.218,1.279-9.356,1.299
		c0.003,2.365,0,4.727,0,7.09h-5.959V5.286z M96.137,10.446c0.003,1.718,0.003,3.435,0,5.153c1.711-0.087,3.493,0.235,5.156-0.296
		c2.005-0.619,2.018-3.929,0.02-4.567C99.649,10.195,97.854,10.536,96.137,10.446"/>
	<path fill="#FFFFFF" d="M45.125,33.16c1.333-0.72,3.005-0.697,4.367-0.064c-0.002,0.615,0.001,1.23-0.002,1.845
		c-0.991-0.722-2.489-0.835-3.472-0.045c-0.672,0.57-0.859,1.564-0.622,2.387c0.184,0.664,0.784,1.141,1.438,1.296
		c0.92,0.228,1.985,0.098,2.715-0.543c-0.007,0.64-0.003,1.281-0.003,1.923c-1.274,0.57-2.781,0.633-4.081,0.105
		c-0.815-0.327-1.52-0.958-1.868-1.771c-0.393-0.908-0.409-1.945-0.179-2.897C43.651,34.457,44.27,33.62,45.125,33.16"/>
	<path fill="#FFFFFF" d="M58.483,33.792c0.379-0.668,1.136-1.013,1.869-1.119c1.091-0.147,2.234,0.027,3.212,0.537
		c-0.002,0.608-0.002,1.214,0,1.822c-0.761-0.552-1.735-0.77-2.663-0.682c-0.242,0.032-0.57,0.095-0.639,0.37
		c-0.057,0.333,0.285,0.501,0.535,0.614c0.912,0.382,1.949,0.563,2.694,1.259c0.727,0.639,0.82,1.769,0.439,2.616
		c-0.318,0.666-1.041,1.019-1.74,1.13c-1.321,0.212-2.722,0.03-3.91-0.597c0.002-0.62-0.003-1.24,0.003-1.859
		c1.012,0.647,2.256,0.983,3.45,0.765c0.319-0.041,0.506-0.436,0.295-0.694c-0.242-0.295-0.637-0.39-0.976-0.531
		c-0.82-0.289-1.716-0.547-2.32-1.212C58.155,35.564,58.071,34.544,58.483,33.792"/>
	<path fill="#FFFFFF" d="M79.135,32.756c1.318-0.296,2.831-0.132,3.896,0.76c1.387,1.176,1.631,3.33,0.859,4.917
		c-0.485,1-1.479,1.687-2.56,1.893c-1.26,0.235-2.682,0.067-3.7-0.769c-1.35-1.109-1.654-3.148-1.001-4.716
		C77.055,33.787,78.029,32.996,79.135,32.756 M79.555,34.558c-1.266,0.435-1.525,2.166-0.891,3.212c0.72,1.194,2.83,1.113,3.4-0.185
		c0.357-0.822,0.307-1.883-0.298-2.577C81.218,34.411,80.292,34.321,79.555,34.558"/>
	<path fill="#FFFFFF" d="M52.92,32.786c0.72-0.008,1.441-0.011,2.162,0.001c0.964,2.498,1.954,4.986,2.932,7.479h-2.029
		c-0.148-0.391-0.295-0.781-0.429-1.178c-1.035,0.002-2.069,0-3.102,0.001c-0.149,0.391-0.293,0.782-0.429,1.177h-2.034
		C50.964,37.771,51.961,35.285,52.92,32.786 M53.039,37.486c0.64,0.001,1.28,0,1.92,0c-0.299-0.984-0.759-1.919-0.96-2.932
		C53.808,35.567,53.353,36.506,53.039,37.486"/>
	<path fill="#FFFFFF" d="M65.125,32.78h1.977v7.486h-1.976C65.125,37.771,65.125,35.275,65.125,32.78"/>
	<path fill="#FFFFFF" d="M68.548,32.78c0.621-0.001,1.243,0.003,1.864-0.002c0.99,1.428,1.951,2.876,2.944,4.301
		c-0.102-1.43-0.028-2.866-0.053-4.298c0.661-0.001,1.322-0.004,1.983,0.002c-0.003,2.493-0.004,4.986,0.001,7.48
		c-0.624,0.008-1.246,0.001-1.87,0.004c-0.98-1.416-1.936-2.851-2.924-4.264c0.059,1.42,0.019,2.843,0.03,4.263h-1.978
		C68.547,37.771,68.547,35.275,68.548,32.78"/>
	<path fill="#FFFFFF" d="M91.668,32.758c1.341-0.305,2.887-0.128,3.953,0.802c1.362,1.208,1.577,3.374,0.767,4.95
		c-0.529,1.033-1.608,1.697-2.74,1.854c-1.246,0.182-2.635-0.036-3.595-0.906c-1.253-1.137-1.52-3.098-0.881-4.622
		C89.594,33.786,90.564,32.997,91.668,32.758 M92.084,34.561c-1.259,0.44-1.514,2.162-0.883,3.206
		c0.718,1.196,2.824,1.117,3.398-0.178c0.371-0.844,0.307-1.946-0.346-2.635C93.693,34.404,92.803,34.328,92.084,34.561"/>
	<path fill="#FFFFFF" d="M97.876,32.78c0.624-0.001,1.246,0.001,1.868-0.001c0.99,1.432,1.951,2.883,2.95,4.308
		c-0.12-1.431-0.032-2.872-0.061-4.306c0.66-0.001,1.32-0.001,1.981-0.001c-0.001,2.495-0.001,4.99,0,7.485
		c-0.622,0.002-1.243-0.001-1.863,0.002c-0.991-1.418-1.949-2.86-2.938-4.279c0.08,1.424,0.022,2.852,0.039,4.278h-1.977V32.78z"/>
	<path fill="#FFFFFF" d="M106.005,32.78h1.977c-0.001,1.912,0.005,3.824-0.003,5.736c1.14-0.028,2.28-0.007,3.421-0.013
		c0.01,0.587,0.004,1.174,0.005,1.763h-5.399C106.004,37.771,106.004,35.275,106.005,32.78"/>
	<path fill="#FFFFFF" d="M112.208,32.78h1.976c0.001,2.495,0,4.991,0,7.486h-1.976C112.207,37.771,112.207,35.275,112.208,32.78"/>
	<path fill="#FFFFFF" d="M115.63,32.78c0.622-0.001,1.245,0.001,1.868,0c0.989,1.43,1.949,2.88,2.947,4.305
		c-0.116-1.431-0.031-2.871-0.058-4.305h1.979c0.001,2.495,0,4.99,0.001,7.485c-0.622,0.004-1.243-0.001-1.863,0.002
		c-0.99-1.418-1.947-2.859-2.938-4.279c0.08,1.425,0.021,2.853,0.039,4.278h-1.977C115.629,37.771,115.629,35.275,115.63,32.78"/>
	<path fill="#FFFFFF" d="M123.759,32.78h5.389v1.711c-1.138,0-2.275-0.001-3.413,0c0,0.385,0.003,0.769-0.003,1.154
		c1.031-0.02,2.063-0.004,3.095-0.009v1.698c-1.031-0.002-2.062,0.003-3.092-0.003c0.001,0.407,0,0.816,0,1.224h3.477v1.711h-5.453
		C123.758,37.771,123.758,35.275,123.759,32.78"/>
	<polygon fill="#FFFFFF" points="18.335,32.317 10.958,40.248 25.712,40.248 	"/>
	<path fill="#FFFFFF" d="M33.243,14.917l-9.642-9.643l-3.43,3.43l9.642,9.642c2.679,2.68,2.679,7.039,0.001,9.718
		c-2.68,2.681-6.615,2.391-9.718,0c-0.878-0.675-1.801-1.714-1.801-1.714s-0.677,0.82-1.715,1.714
		c-1.391,1.198-3.023,2.014-4.858,2.014c-1.836,0-3.562-0.716-4.86-2.014c-2.679-2.679-2.679-7.038,0-9.718l4.475-4.474l1.815,1.815
		l3.43-3.429l-1.815-1.816l7.009-7.009L18.349,0l-7.012,7.012L9.499,5.173l-3.43,3.43l1.839,1.839l-4.475,4.474
		C1.219,17.13,0,20.073,0,23.205c0,3.131,1.219,6.075,3.433,8.289s5.157,3.433,8.289,3.433c2.399,0,4.684-0.721,6.62-2.052
		c1.986,1.358,4.297,2.047,6.613,2.047c3.001,0,6.003-1.144,8.288-3.428C37.813,26.923,37.813,19.486,33.243,14.917"/>
</g>
</svg>
