<svg width="203" height="56" viewBox="0 0 203 56" fill="none" xmlns="http://www.w3.org/2000/svg">
<g id="&#208;&#161;&#208;&#187;&#208;&#190;&#208;&#185; 2">
<g id="&#208;&#161;&#208;&#187;&#208;&#190;&#208;&#185; 1">
<path id="Vector" d="M25.9197 19.7144C26.713 19.1795 27.5552 18.7188 28.4354 18.3383C28.3965 18.2832 28.3498 18.2339 28.2968 18.1919C28.2005 18.1408 28.1013 18.0952 27.9996 18.0553C26.7267 17.5432 25.6055 16.7229 24.7399 15.6703C23.8742 14.6177 23.2921 13.3669 23.0475 12.0337C22.7561 10.7308 22.7586 9.38076 23.0546 8.07891C23.3507 6.77705 23.9332 5.55511 24.7609 4.49934C24.9194 4.28463 24.959 4.17728 24.7609 3.97233C23.6947 2.87066 22.4149 1.99118 20.9973 1.38606C19.272 0.654539 17.4262 0.237878 15.5498 0.156362C12.0635 -0.0485878 8.69602 0.302754 5.64548 2.10826C3.72487 3.20573 2.25618 4.93271 1.49554 6.98801C0.972764 8.38419 0.799489 9.88403 0.990422 11.3603C1.09025 12.3916 1.39738 13.393 1.8939 14.3062C2.39043 15.2193 3.06642 16.026 3.8825 16.6792C4.7377 17.3405 5.69375 17.8642 6.71515 18.231C6.62601 18.4652 6.41802 18.4749 6.24964 18.5433C4.83145 19.0495 3.5543 19.8779 2.52181 20.9615C1.48931 22.045 0.730531 23.3531 0.30702 24.7796C0.260289 25.3316 0.157428 25.8776 -1.52588e-05 26.4094L-1.52588e-05 27.239C0.0730488 27.5108 0.0730488 27.7967 -1.52588e-05 28.0685L-1.52588e-05 28.8102C0.128742 28.8786 0.0891241 28.9957 0.0990285 29.0933C0.228367 30.4836 0.646869 31.8329 1.32846 33.0569C2.01006 34.2809 2.94014 35.3535 4.06078 36.2079C6.00895 37.6599 8.31182 38.5791 10.7363 38.8723C13.734 39.3541 16.803 39.1708 19.7196 38.3355C21.5523 37.8199 23.2445 36.9061 24.6718 35.6614C24.8897 35.4662 24.9491 35.3686 24.7213 35.1246C22.9427 33.1864 21.9487 30.6718 21.9283 28.0588C21.7991 26.4504 22.0964 24.8365 22.7909 23.3754C23.4855 21.9143 24.5534 20.6561 25.89 19.7242L25.9197 19.7144ZM8.8644 8.51049C9.31564 7.7902 9.93662 7.18785 10.6746 6.75459C11.4126 6.32133 12.2458 6.06995 13.1035 6.02182C13.4333 6.00309 13.764 6.00309 14.0939 6.02182C15.2489 5.94544 16.4031 6.18168 17.4317 6.70499C18.1106 7.03574 18.6948 7.52875 19.1307 8.13904C19.5667 8.74934 19.8406 9.45749 19.9276 10.1989C20.1181 11.0498 20.0912 11.934 19.8492 12.7721C19.6071 13.6102 19.1576 14.376 18.541 15.0006C17.8537 15.6597 16.9802 16.0985 16.0352 16.2595C14.1719 16.721 12.2016 16.4918 10.4986 15.6154C9.82329 15.2291 9.26058 14.6776 8.86497 14.0142C8.46936 13.3508 8.25424 12.598 8.24042 11.8287C8.10225 10.6953 8.32003 9.54744 8.8644 8.53977V8.51049ZM21.0468 27.7855C21.0148 28.745 20.7223 29.6785 20.1997 30.4887C19.6771 31.2989 18.9435 31.9561 18.0755 32.392C17.0582 32.9036 15.9386 33.1869 14.7971 33.2215C13.1555 33.3702 11.5063 33.0302 10.0628 32.2456C9.25998 31.8125 8.58283 31.1844 8.09572 30.4209C7.60861 29.6573 7.3277 28.7837 7.2797 27.8831C7.15564 27.0772 7.21575 26.2542 7.45564 25.4742C7.69553 24.6941 8.10915 23.9767 8.66631 23.3742C9.52593 22.5199 10.621 21.9329 11.8159 21.6858C12.4855 21.513 13.174 21.4212 13.8661 21.4125C15.5478 21.3183 17.22 21.7191 18.6697 22.5642C19.5336 23.1108 20.2192 23.8914 20.6443 24.8123C21.0694 25.7332 21.2161 26.7553 21.0666 27.7562" fill="#D10008"/>
<path id="Vector_2" d="M70.4993 22.0273C69.3458 20.4684 67.7704 19.261 65.9532 18.5431C65.7749 18.465 65.5471 18.4553 65.4481 18.2406C65.4481 18.2406 65.4481 18.182 65.5075 18.1723L65.9829 17.9868C67.7774 17.3161 69.2724 16.04 70.2022 14.3856C70.768 13.3091 71.1051 12.1302 71.1926 10.9209C71.3545 9.24045 71.0318 7.54904 70.2616 6.0412C69.3758 4.33778 67.9971 2.93163 66.2998 2.00077C64.6631 1.07181 62.8488 0.48697 60.9713 0.283097C58.073 -0.13192 55.1169 0.104975 52.3248 0.976021C50.4809 1.54238 48.8072 2.54801 47.4518 3.90387C47.2438 4.11858 47.2042 4.24545 47.4518 4.50896C48.3929 5.69202 49.0102 7.09329 49.2445 8.57867C49.441 9.85169 49.3906 11.1499 49.0959 12.4044C48.7334 14.0361 47.8395 15.5064 46.5505 16.5912C45.8115 17.2012 44.9835 17.698 44.0942 18.0649C44.0051 18.0649 43.8565 18.1137 43.8466 18.2503C43.8367 18.387 43.9952 18.387 44.0843 18.4358C44.4409 18.6212 44.8073 18.7773 45.154 18.9725C46.2705 19.5298 47.2611 20.3038 48.0662 21.2481C48.8713 22.1923 49.4742 23.2873 49.8388 24.4671C50.5306 26.8084 50.4543 29.3053 49.6209 31.6013C49.153 32.9182 48.4069 34.1224 47.432 35.1343C47.2636 35.3099 47.1943 35.427 47.432 35.6125C48.7034 36.7492 50.1963 37.6192 51.8196 38.1695C54.1225 38.9237 56.5464 39.2545 58.9706 39.1454C61.9655 39.1331 64.8966 38.291 67.4289 36.7153C69.1035 35.6404 70.4276 34.1121 71.2421 32.3138C71.8587 30.9188 72.1789 29.4142 72.183 27.8927C72.2963 25.8123 71.7078 23.7533 70.5092 22.037L70.4993 22.0273ZM53.7312 7.39777C54.7395 6.50834 56.0425 6.0121 57.3958 6.00216C58.438 5.90959 59.4886 6.00551 60.4959 6.28519C61.459 6.55822 62.3108 7.12243 62.931 7.89818C63.5513 8.67393 63.9086 9.62203 63.9525 10.6086C63.9525 10.8234 63.9525 11.0381 64.002 11.2528C64.0614 12.0667 63.9045 12.8818 63.5467 13.6177C63.1889 14.3536 62.6426 14.9849 61.9617 15.4494C61.3505 15.8784 60.6503 16.1684 59.9115 16.2984C58.4339 16.6048 56.9005 16.524 55.4644 16.0642C54.5964 15.7999 53.8273 15.288 53.2543 14.5932C52.6814 13.8984 52.3304 13.0518 52.2455 12.1604C52.0676 11.3074 52.1124 10.4238 52.3757 9.5925C52.639 8.76119 53.1122 8.00938 53.751 7.40753L53.7312 7.39777ZM65.042 27.5414C65.0361 28.3025 64.8692 29.0541 64.5521 29.7481C64.2349 30.4421 63.7743 31.0633 63.1998 31.572C62.2209 32.4173 61.0057 32.9514 59.7134 33.1043C57.9476 33.4276 56.1241 33.2272 54.474 32.5285C53.6231 32.1909 52.8771 31.6392 52.3104 30.9285C51.7438 30.2177 51.3765 29.3728 51.2452 28.4783C51.0565 27.684 51.0383 26.8595 51.1918 26.0579C51.3453 25.2562 51.6671 24.495 52.1366 23.823C52.9765 22.7608 54.1623 22.0163 55.4942 21.715C56.3523 21.4693 57.2462 21.3671 58.1386 21.4124C59.6313 21.3294 61.115 21.6898 62.3975 22.4469C63.2768 22.97 63.9874 23.7283 64.4467 24.6335C64.9061 25.5388 65.0953 26.5539 64.9925 27.5609" fill="#D10008"/>
<path id="Vector_3" d="M31.6147 27.3851L36.2698 21.1292L40.9248 27.3851L36.2599 33.6409L31.6048 27.3851" fill="black"/>
<path id="Vector_4" d="M30.9611 8.10062V7.71024C30.994 7.64116 31.0205 7.5693 31.0403 7.49553C31.1055 7.00292 31.326 6.54291 31.6708 6.18044C32.0155 5.81796 32.4671 5.57132 32.9617 5.47531C33.5565 5.35819 34.174 5.443 34.7135 5.71593C35.2531 5.98886 35.683 6.43381 35.9331 6.97828C36.0618 7.23202 36.1708 7.49553 36.2797 7.73952C36.5099 7.26767 36.7712 6.81125 37.0622 6.37319C37.385 5.96576 37.8264 5.6652 38.3273 5.51172C38.8282 5.35824 39.3647 5.35916 39.8651 5.51435C40.3473 5.65538 40.7731 5.94056 41.0836 6.33045C41.3941 6.72035 41.574 7.19569 41.5984 7.69072C41.6416 8.51431 41.4122 9.32945 40.9447 10.0135C40.3108 10.9894 39.6076 11.8873 38.9638 12.8047C37.9177 14.0545 37.0817 15.4614 36.4877 16.972C36.4877 17.0598 36.4184 17.1477 36.3589 17.2941C35.999 16.1245 35.425 15.0297 34.6653 14.0637L33.2094 12.1118C32.2981 10.8723 31.2285 9.73045 30.971 8.1299" fill="black"/>
<path id="Vector_5" d="M77.3135 27.229H85.237C85.237 30.2154 86.7524 31.5037 89.1987 31.5037C91.6451 31.5037 92.9921 30.0593 92.9921 28.1952C92.9921 21.9979 78.1356 21.2562 78.1356 9.87663C78.1257 4.16732 82.2063 1.52588e-05 89.1393 1.52588e-05C96.0724 1.52588e-05 100.361 4.10876 100.361 10.999H92.4375C92.4375 8.53958 91.2985 7.30988 89.0799 7.30988C87.099 7.30988 85.8808 8.37366 85.8808 10.0913C85.8808 15.947 100.945 16.3374 100.945 28.244C100.945 34.3827 96.5577 38.8721 89.0601 38.8721C81.8695 38.8721 77.3135 34.7633 77.3135 27.229Z" fill="black"/>
<path id="Vector_6" d="M126.033 7.95402H118.605V38.1304H110.681V7.95402H103.253V0.751511H126.033V7.95402Z" fill="black"/>
<path id="Vector_7" d="M141.632 31.9331H133.61L132.362 38.1304H124.439L133.491 0.751511H141.732L150.834 38.1304H142.91L141.632 31.9331ZM140.117 24.7208L139.236 20.495C138.75 17.8209 138.097 13.2827 137.72 10.2377H137.502C137.126 13.2827 136.512 17.8209 135.987 20.495L135.115 24.7696L140.117 24.7208Z" fill="black"/>
<path id="Vector_8" d="M164.601 25.5797H161.887V38.1304H154.191V0.751511H165.195C172.732 0.751511 177.169 5.34823 177.169 13.1949C177.169 18.2698 175.268 21.9784 171.91 23.9791L179.061 38.1304H170.662L164.601 25.5797ZM161.887 18.3674H165.086C167.8 18.3674 169.256 16.5521 169.256 13.1851C169.256 9.81808 167.79 7.95402 165.086 7.95402H161.887V18.3674Z" fill="black"/>
<path id="Vector_9" d="M202.98 30.9181V38.1304H181.25V33.0555L193.284 7.95402H182.171V0.751511H202.713V5.9826L190.827 30.9181H202.98Z" fill="black"/>
<path id="Vector_10" d="M2.56525 46.6407H4.16975V55.8732H2.56525V46.6407Z" fill="black"/>
<path id="Vector_11" d="M15.9361 50.1148H17.5208V54.5554C16.9337 55.0309 16.262 55.395 15.54 55.6289C14.7732 55.8785 13.9704 56.0038 13.1629 55.9998C12.0652 56.0176 10.9811 55.7589 10.0133 55.2483C9.10209 54.7654 8.34186 54.0467 7.81456 53.1695C7.29019 52.259 7.01453 51.23 7.01453 50.1831C7.01453 49.1362 7.29019 48.1072 7.81456 47.1967C8.34092 46.3154 9.10563 45.5957 10.0232 45.1179C11.0021 44.6081 12.0955 44.3497 13.2025 44.3665C14.0626 44.3555 14.9167 44.5079 15.7182 44.8154C16.4521 45.1003 17.1095 45.5478 17.6397 46.1232L16.6493 47.0991C16.2085 46.6708 15.6853 46.3336 15.1104 46.1073C14.5355 45.8811 13.9205 45.7703 13.3016 45.7816C12.4775 45.7668 11.663 45.9582 10.9344 46.3379C10.2496 46.6975 9.68021 47.2383 9.29031 47.8994C8.89989 48.585 8.69484 49.3579 8.69484 50.1441C8.69484 50.9302 8.89989 51.7032 9.29031 52.3888C9.66756 53.0536 10.2225 53.6037 10.8948 53.9796C11.6152 54.3631 12.4234 54.558 13.2422 54.5456C14.1966 54.5668 15.1365 54.3124 15.946 53.8137L15.9361 50.1148Z" fill="black"/>
<path id="Vector_12" d="M26.7418 53.6773H21.7104L20.72 55.8732H19.1551L23.4437 46.6407H25.0284L29.3368 55.8732H27.7323L26.7418 53.6773ZM26.1773 52.4281L24.1964 48.0753L22.2155 52.4281H26.1773Z" fill="black"/>
<path id="Vector_13" d="M40.0533 55.8732V49.4709L36.8245 54.7703H36.0816L32.8528 49.6173V55.8732H31.2879V46.6407H32.6844L36.4778 52.8477L40.2019 46.6407H41.5984V55.8732H40.0533Z" fill="black"/>
<path id="Vector_14" d="M44.8569 46.6407H46.4515V55.8732H44.8569V46.6407Z" fill="black"/>
<path id="Vector_15" d="M58.0495 46.6407V55.8732H56.7322L51.3244 49.3538V55.8732H49.7199V46.6407H51.0372L56.4549 53.1893V46.6407H58.0495Z" fill="black"/>
<path id="Vector_16" d="M67.8549 51.2079H69.4098V54.8189C68.929 55.2148 68.3737 55.5132 67.7756 55.6973C67.1364 55.9045 66.4677 56.0099 65.7948 56.0096C64.8752 56.0238 63.9664 55.8126 63.1503 55.3947C62.387 54.9989 61.748 54.4052 61.3022 53.6776C60.8564 52.9501 60.6208 52.1163 60.6208 51.2665C60.6208 50.4166 60.8564 49.5829 61.3022 48.8553C61.748 48.1277 62.387 47.534 63.1503 47.1382C63.953 46.7224 64.8484 46.5111 65.7551 46.5234C66.453 46.4776 67.1526 46.5833 67.8046 46.8328C68.4566 47.0824 69.0451 47.4698 69.5287 47.9678L68.5383 48.9437C68.1886 48.5814 67.7652 48.2958 67.2959 48.1058C66.8265 47.9157 66.3217 47.8255 65.8146 47.8409C65.1865 47.8311 64.5662 47.9789 64.012 48.2703C63.4872 48.547 63.0515 48.9628 62.7541 49.4707C62.4466 50.0025 62.2893 50.6057 62.2985 51.2177C62.2909 51.8233 62.4482 52.4198 62.7541 52.9451C63.0536 53.4573 63.4928 53.8766 64.0219 54.1553C64.5882 54.4533 65.2221 54.6045 65.8641 54.5945C66.5799 54.6137 67.2869 54.4345 67.9044 54.0772L67.8549 51.2079Z" fill="black"/>
<path id="Vector_17" d="M77.6899 44.4934H82.5529C83.6781 44.4713 84.7921 44.7156 85.8016 45.2058C86.7147 45.6547 87.4779 46.3525 88.0003 47.2163C88.5147 48.123 88.7848 49.1444 88.7848 50.1831C88.7848 51.2219 88.5147 52.2433 88.0003 53.15C87.4779 54.0138 86.7147 54.7116 85.8016 55.1605C84.7921 55.6507 83.6781 55.895 82.5529 55.8729H77.6899V44.4934ZM82.4539 54.4578C83.3077 54.4758 84.1534 54.2918 84.9201 53.921C85.6036 53.5865 86.1745 53.0646 86.5642 52.4181C86.943 51.7323 87.1415 50.9639 87.1415 50.1831C87.1415 49.4024 86.943 48.634 86.5642 47.9482C86.1745 47.3017 85.6036 46.7798 84.9201 46.4453C84.1568 46.061 83.3109 45.8635 82.4539 45.8695H79.334V54.4578H82.4539Z" fill="black"/>
<path id="Vector_18" d="M98.6079 54.5556V55.8732H91.5758V46.6407H98.4197V47.9387H93.1704V50.5347H97.8354V51.823H93.1803V54.5556H98.6079Z" fill="black"/>
<path id="Vector_19" d="M103.005 45.8695V49.8709H108.8V51.2665H103.005V55.8632H101.351V44.4934H109.503V45.8695H103.005Z" fill="black"/>
<path id="Vector_20" d="M111.414 46.6407H113.019V55.8732H111.414V46.6407Z" fill="black"/>
<path id="Vector_21" d="M129.619 45.5475C130.03 45.9196 130.359 46.372 130.584 46.876C130.809 47.3801 130.925 47.9247 130.925 48.4753C130.925 49.0259 130.809 49.5706 130.584 50.0746C130.359 50.5786 130.03 51.031 129.619 51.4032C128.607 52.1549 127.357 52.5285 126.093 52.4572H123.24V55.9023H121.586V44.4934H126.093C127.357 44.4222 128.607 44.7957 129.619 45.5475ZM128.43 50.3491C128.69 50.1049 128.897 49.8111 129.039 49.4857C129.18 49.1602 129.253 48.8098 129.253 48.4558C129.253 48.1017 129.18 47.7514 129.039 47.4259C128.897 47.1005 128.69 46.8067 128.43 46.5624C127.731 46.0803 126.885 45.8494 126.033 45.9086H123.23V51.0128H126.033C126.886 51.0691 127.732 50.8347 128.43 50.3491Z" fill="black"/>
<path id="Vector_22" d="M133.432 46.6407H135.036V54.5556H140.068V55.8732H133.432V46.6407Z" fill="black"/>
<path id="Vector_23" d="M148.883 53.6773H143.851L142.861 55.8732H141.296L145.594 46.6407H147.179L151.487 55.8732H149.853L148.883 53.6773ZM148.318 52.4281L146.337 48.0753L144.356 52.4281H148.318Z" fill="black"/>
<path id="Vector_24" d="M154.261 47.9387H151.061V46.6407H159.064V47.9387H155.865V55.8732H154.261V47.9387Z" fill="black"/>
<path id="Vector_25" d="M162.659 47.9387V50.9446H167.324V52.2426H162.659V55.8634H161.055V46.6407H167.899V47.9387H162.659Z" fill="black"/>
<path id="Vector_26" d="M171.9 55.385C171.14 54.9869 170.504 54.3923 170.06 53.6651C169.616 52.9378 169.382 52.1053 169.382 51.2568C169.382 50.4082 169.616 49.5757 170.06 48.8484C170.504 48.1212 171.14 47.5266 171.9 47.1285C172.708 46.7223 173.603 46.5106 174.51 46.5106C175.417 46.5106 176.312 46.7223 177.12 47.1285C177.88 47.5266 178.516 48.1212 178.96 48.8484C179.404 49.5757 179.638 50.4082 179.638 51.2568C179.638 52.1053 179.404 52.9378 178.96 53.6651C178.516 54.3923 177.88 54.9869 177.12 55.385C176.312 55.7912 175.417 56.0029 174.51 56.0029C173.603 56.0029 172.708 55.7912 171.9 55.385ZM176.298 54.1944C176.816 53.9126 177.247 53.4978 177.546 52.9939C177.842 52.4615 177.998 51.8641 177.998 51.2568C177.998 50.6495 177.842 50.052 177.546 49.5196C177.249 49.0121 176.817 48.5938 176.298 48.3094C175.749 48.0206 175.137 47.8696 174.515 47.8696C173.893 47.8696 173.281 48.0206 172.732 48.3094C172.214 48.5912 171.783 49.006 171.484 49.5098C171.187 50.0419 171.031 50.6395 171.031 51.247C171.031 51.8545 171.187 52.4521 171.484 52.9842C171.782 53.4883 172.214 53.9032 172.732 54.1846C173.281 54.4734 173.893 54.6244 174.515 54.6244C175.137 54.6244 175.749 54.4734 176.298 54.1846V54.1944Z" fill="black"/>
<path id="Vector_27" d="M188.431 55.8729L186.45 53.111H186.024H183.795V55.8534H182.191V46.6404H186.014C187.076 46.5728 188.128 46.8769 188.985 47.4993C189.339 47.789 189.62 48.1558 189.806 48.5707C189.991 48.9856 190.077 49.4374 190.055 49.8904C190.074 50.5327 189.887 51.1647 189.52 51.6959C189.138 52.2129 188.606 52.6042 187.995 52.8182L190.164 55.8729H188.431ZM187.747 51.3348C187.958 51.1516 188.127 50.9263 188.242 50.6739C188.358 50.4215 188.418 50.1478 188.418 49.8708C188.418 49.5939 188.358 49.3202 188.242 49.0678C188.127 48.8153 187.958 48.5901 187.747 48.4069C187.206 48.0353 186.553 47.8563 185.895 47.8994H183.766V51.8032H185.895C186.545 51.8555 187.194 51.6905 187.737 51.3348H187.747Z" fill="black"/>
<path id="Vector_28" d="M201.465 55.8732V49.4709L198.236 54.7703H197.493L194.264 49.6173V55.8732H192.729V46.6407H194.096L197.889 52.8477L201.613 46.6407H203V55.8732H201.465Z" fill="black"/>
</g>
</g>
</svg>
