<svg width="30" height="31" viewBox="0 0 30 31" fill="none" xmlns="http://www.w3.org/2000/svg">
<g id="prime:copy">
<path id="Vector" d="M24.4125 10.5L17.5 3.5875C17.3244 3.41163 17.0861 3.31272 16.8375 3.3125H13.75C12.8383 3.3125 11.964 3.67466 11.3193 4.31932C10.6747 4.96398 10.3125 5.83832 10.3125 6.75V8.3125H8.75C7.83832 8.3125 6.96398 8.67466 6.31932 9.31932C5.67466 9.96398 5.3125 10.8383 5.3125 11.75V24.25C5.3125 25.1617 5.67466 26.036 6.31932 26.6807C6.96398 27.3253 7.83832 27.6875 8.75 27.6875H17.5C18.4117 27.6875 19.286 27.3253 19.9307 26.6807C20.5753 26.036 20.9375 25.1617 20.9375 24.25V22.6875H21.25C22.1617 22.6875 23.036 22.3253 23.6807 21.6807C24.3253 21.036 24.6875 20.1617 24.6875 19.25V11.125C24.6777 10.8895 24.5795 10.6664 24.4125 10.5ZM17.8125 6.5125L21.4875 10.1875H17.8125V6.5125ZM19.0625 24.25C19.0625 24.6644 18.8979 25.0618 18.6049 25.3549C18.3118 25.6479 17.9144 25.8125 17.5 25.8125H8.75C8.3356 25.8125 7.93817 25.6479 7.64515 25.3549C7.35212 25.0618 7.1875 24.6644 7.1875 24.25V11.75C7.1875 11.3356 7.35212 10.9382 7.64515 10.6451C7.93817 10.3521 8.3356 10.1875 8.75 10.1875H10.3125V19.25C10.3125 20.1617 10.6747 21.036 11.3193 21.6807C11.964 22.3253 12.8383 22.6875 13.75 22.6875H19.0625V24.25ZM21.25 20.8125H13.75C13.3356 20.8125 12.9382 20.6479 12.6451 20.3549C12.3521 20.0618 12.1875 19.6644 12.1875 19.25V6.75C12.1875 6.3356 12.3521 5.93817 12.6451 5.64515C12.9382 5.35212 13.3356 5.1875 13.75 5.1875H15.9375V11.125C15.9407 11.3726 16.0405 11.6092 16.2157 11.7843C16.3908 11.9595 16.6274 12.0593 16.875 12.0625H22.8125V19.25C22.8125 19.6644 22.6479 20.0618 22.3549 20.3549C22.0618 20.6479 21.6644 20.8125 21.25 20.8125Z" fill="white"/>
</g>
</svg>
